<?xml version="1.0" standalone="no"?>
<!DOCTYPE svg PUBLIC "-//W3C//DTD SVG 20010904//EN"
 "http://www.w3.org/TR/2001/REC-SVG-20010904/DTD/svg10.dtd">
<svg version="1.0" xmlns="http://www.w3.org/2000/svg"
 width="82.560000pt" height="107.280000pt" viewBox="0 0 82.560000 107.280000"
 preserveAspectRatio="xMidYMid meet">
<metadata>
Created by potrace 1.16, written by Peter Selinger 2001-2019
</metadata>
<g transform="translate(0.000000,107.280000) scale(0.024000,-0.024000)"
fill="#000000" stroke="none">
<path d="M1554 3781 c-36 -22 -50 -54 -59 -133 -4 -32 -11 -60 -16 -63 -5 -4
-9 -15 -9 -26 0 -10 -4 -19 -9 -19 -4 0 -7 10 -5 23 10 74 12 110 4 97 -4 -8
-9 -40 -11 -70 -1 -30 -6 -66 -11 -80 l-8 -25 20 24 c20 23 20 23 20 2 0 -12
4 -21 9 -21 11 0 21 49 22 109 0 41 1 43 10 21 6 -14 22 -37 36 -52 18 -18 23
-32 18 -47 -4 -15 -2 -20 7 -17 13 5 115 -112 110 -127 -1 -4 12 -16 29 -26
l32 -19 -51 -26 c-28 -14 -53 -30 -56 -35 -4 -5 -40 -12 -81 -16 -42 -4 -78
-12 -82 -18 -6 -10 69 -4 125 10 12 3 22 1 22 -5 0 -6 -15 -13 -32 -15 -18 -3
5 -2 52 1 111 7 117 7 240 -3 137 -10 290 -12 290 -3 0 8 57 -1 79 -12 9 -5 4
-13 -21 -28 -19 -12 -43 -31 -54 -43 -26 -30 -1 -16 60 35 l49 41 -39 12 c-39
13 -38 13 26 9 36 -2 76 0 90 5 28 10 -194 3 -302 -9 -85 -9 -91 4 -30 67 35
36 42 49 37 70 -4 21 0 33 21 51 l27 25 -6 -70 c-4 -38 -9 -82 -13 -97 -3 -16
-2 -28 3 -28 5 0 15 45 22 99 10 78 10 107 1 136 -7 20 -10 37 -8 39 17 11 65
29 73 27 5 -2 7 1 3 5 -4 4 -2 14 4 22 18 21 15 112 -5 149 -10 18 -31 39 -47
48 -39 20 -47 19 -21 -2 26 -21 45 -89 27 -96 -7 -3 -13 4 -13 16 -1 11 -6 24
-11 29 -6 6 -8 0 -5 -16 4 -22 2 -26 -16 -26 -12 0 -19 5 -16 10 3 6 2 10 -4
10 -6 0 -8 -14 -6 -32 3 -18 3 -27 -1 -20 -9 19 -23 5 -17 -18 3 -11 10 -17
16 -13 6 4 8 -2 5 -15 -5 -19 -2 -22 20 -21 15 0 21 3 15 6 -7 2 -13 9 -13 15
0 6 8 4 18 -5 17 -16 19 -15 35 18 9 20 17 43 18 53 0 12 3 11 10 -6 11 -29 0
-51 -42 -86 -66 -56 -114 -18 -112 88 1 60 1 60 -7 16 -8 -43 0 -100 18 -127
4 -7 20 -14 35 -15 25 -2 27 -6 27 -44 0 -29 -6 -46 -21 -60 -20 -18 -20 -18
-15 11 5 24 4 26 -3 10 -5 -11 -10 -33 -10 -50 -3 -71 -81 -151 -114 -115 -10
10 -9 12 6 7 21 -8 23 6 3 22 -8 7 -14 20 -14 29 0 9 -3 25 -7 35 -4 10 -3 17
3 17 6 0 16 -8 21 -17 6 -10 11 -13 11 -7 0 6 -7 17 -15 24 -13 11 -19 9 -35
-8 -17 -18 -17 -22 -4 -33 28 -23 9 -32 -66 -30 -41 1 -77 4 -79 7 -2 2 2 10
9 19 8 9 29 15 58 15 47 0 49 15 2 22 -16 2 -27 12 -32 28 l-7 25 2 -25 c1
-17 -7 -33 -26 -49 l-28 -23 -42 45 c-51 56 -87 103 -87 116 0 5 -5 11 -11 13
-18 6 -23 92 -7 129 31 71 39 92 35 96 -3 2 -16 -24 -30 -59 -25 -60 -26 -61
-26 -28 -1 19 8 51 19 70 20 33 20 34 1 12 -11 -12 -25 -21 -32 -20 -7 2 -19
-13 -25 -32 l-13 -35 0 30 c-1 37 21 70 63 96 17 10 24 19 16 19 -8 0 -29 -9
-46 -19z"/>
<path d="M2901 3493 c-9 -23 -10 -24 -7 -4 3 13 1 20 -4 15 -10 -11 -52 -165
-46 -171 2 -2 12 22 21 54 21 76 23 81 24 60 1 -11 6 -15 13 -11 8 5 10 -7 5
-47 -7 -62 7 -47 18 19 4 26 3 48 -3 55 -7 8 -7 18 -2 27 9 15 22 -8 36 -68 4
-15 12 -30 18 -34 10 -6 7 -28 -20 -178 l-6 -35 20 31 c28 43 63 68 74 51 11
-18 10 -27 -5 -27 -18 0 -53 -39 -66 -73 -8 -19 -15 -26 -23 -20 -19 12 -96
10 -92 -2 2 -5 -21 -20 -51 -31 l-55 -21 0 22 c0 51 24 136 40 145 13 7 20 5
24 -6 4 -10 2 -13 -6 -8 -8 5 -9 2 -5 -10 4 -10 7 -20 7 -22 0 -2 9 5 20 16
25 25 26 41 3 34 -16 -5 -15 -3 1 10 11 9 17 18 14 21 -5 6 -77 -17 -77 -25 0
-3 -5 -18 -11 -35 -35 -91 -65 -595 -41 -683 7 -23 16 -40 21 -37 5 3 11 -7
13 -22 8 -46 -2 86 -12 177 -14 117 -1 398 19 411 8 5 21 7 28 4 7 -3 10 0 7
6 -4 6 -1 9 6 8 8 -2 34 7 58 19 48 24 76 28 86 12 12 -19 23 -10 35 25 6 19
27 47 45 63 26 21 33 33 28 50 -6 24 -15 27 -43 12 -16 -9 -18 -3 -22 68 -3
55 -11 91 -29 126 -29 59 -43 66 -58 29z"/>
<path d="M974 3353 c-12 -18 -20 -53 -22 -98 -4 -55 -9 -76 -28 -98 -24 -29
-30 -47 -16 -47 4 0 13 5 19 11 8 8 10 1 6 -28 -3 -22 -1 -43 4 -46 5 -3 7 7
5 24 -5 31 20 69 45 69 15 0 17 16 3 25 -20 13 -9 25 48 51 31 15 58 28 59 28
1 1 -5 22 -13 46 -13 40 -14 41 -9 10 l4 -35 -30 35 c-16 19 -32 45 -35 58 -8
29 -18 28 -40 -5z"/>
<path d="M1469 3148 l-25 -11 22 -22 c15 -15 25 -41 30 -74 4 -28 11 -51 16
-51 5 0 6 -21 4 -47 -3 -27 -5 -55 -6 -63 0 -13 -1 -13 -10 0 -14 21 -13 -43
1 -95 6 -22 11 -56 10 -76 -1 -20 6 -55 14 -79 9 -24 12 -41 9 -37 -4 3 -18
-3 -32 -13 -23 -18 -27 -19 -42 -5 -23 21 -35 19 -54 -10 -22 -33 -36 -32 -27
3 6 21 14 28 39 30 37 4 63 42 61 89 -2 27 -2 27 -6 3 -7 -37 -32 -60 -65 -60
-29 0 -32 -3 -42 -52 -6 -25 -8 -26 -31 -16 -14 6 -25 18 -26 27 0 10 -2 12
-6 4 -3 -8 -23 -13 -49 -13 -26 0 -43 4 -39 9 3 6 -4 9 -15 8 -11 -1 -20 -5
-20 -9 0 -4 -11 -8 -25 -8 -22 0 -24 3 -15 25 8 21 7 25 -10 25 -15 0 -20 7
-20 28 0 45 -16 59 -24 20 l-8 -33 -18 41 c-10 23 -24 45 -30 49 -7 4 -4 -4 5
-19 25 -38 8 -47 -21 -11 -13 17 -24 25 -24 19 0 -14 43 -54 58 -54 19 0 15
-75 -5 -92 -27 -23 -141 -58 -190 -58 -39 0 -48 -5 -110 -67 -38 -36 -87 -75
-110 -85 -59 -26 -69 -49 -48 -104 15 -39 15 -47 1 -87 -22 -64 -11 -121 31
-163 31 -31 33 -39 10 -35 -5 1 -6 -3 -2 -8 3 -6 -10 -32 -29 -58 -42 -58 -96
-159 -96 -179 0 -20 40 -17 78 6 18 11 36 20 40 20 4 0 7 -30 6 -67 l-3 -68 9
72 c8 63 14 77 42 104 28 25 29 28 8 18 -14 -8 -28 -12 -32 -11 -5 1 -8 -2 -8
-7 0 -11 -108 -73 -120 -69 -24 8 127 258 155 258 11 0 15 -6 11 -17 -19 -70
-35 -147 -31 -151 12 -12 24 17 43 102 12 50 27 93 34 97 7 4 47 33 88 63 83
61 93 58 66 -21 -18 -54 -20 -64 -5 -43 7 11 8 4 3 -25 -4 -22 -4 -38 -1 -35
3 3 13 48 22 100 13 78 20 99 42 118 l26 23 26 -43 c46 -77 75 -109 146 -163
96 -71 162 -104 226 -112 31 -3 63 -13 74 -24 11 -10 32 -22 48 -28 22 -9 27
-8 27 4 0 8 -4 14 -9 12 -16 -4 -69 42 -100 88 -17 25 -31 48 -31 51 0 2 18 4
41 4 82 0 235 54 268 94 8 10 -4 6 -31 -9 -45 -25 -100 -46 -153 -59 l-30 -7
36 38 c20 21 64 76 97 123 34 47 70 96 81 109 12 13 21 30 21 38 0 11 7 28 27
62 5 8 80 -50 101 -79 33 -44 29 -53 -23 -48 -44 3 -45 3 -23 -14 l23 -17 -34
-63 c-53 -97 -88 -145 -129 -175 -20 -15 -55 -42 -77 -61 -22 -18 -46 -38 -53
-44 -7 -5 -11 -12 -8 -15 6 -6 95 45 152 88 l41 30 61 -25 c34 -14 68 -26 76
-26 9 0 34 -10 56 -21 23 -12 61 -24 85 -27 40 -4 47 -1 77 28 18 19 28 35 22
37 -8 3 -5 16 7 41 11 20 19 44 19 53 0 9 16 74 35 145 19 70 35 137 35 149 0
13 6 28 14 34 11 9 16 5 26 -19 19 -45 21 -31 5 23 -8 26 -19 73 -24 105 -14
74 -51 439 -52 511 -1 47 -3 51 -9 26 -10 -40 -10 -237 0 -305 7 -46 8 -40 5
40 l-3 95 10 -82 c6 -45 8 -92 4 -106 -7 -29 -40 -37 -168 -37 -78 0 -87 -2
-93 -20 -3 -11 -11 -20 -17 -20 -5 0 -8 7 -4 15 4 12 -4 15 -37 17 l-42 1 40
6 40 5 -45 5 c-32 4 -48 2 -56 -8 -15 -19 -194 -26 -194 -8 0 9 -2 9 -8 0 -4
-7 -17 8 -32 40 -17 35 -21 51 -13 54 7 2 10 10 7 17 -3 7 9 50 26 96 17 45
29 85 27 87 -2 2 -17 -31 -32 -73 -32 -86 -49 -83 -38 7 5 39 8 48 14 34 14
-37 14 39 0 150 -6 55 -9 61 -10 30 l-2 -40 -13 47 c-7 26 -18 54 -26 62 -10
13 -10 16 4 16 9 0 16 5 16 10 0 6 -1 10 -2 9 -2 -1 -15 -6 -29 -11z m699
-595 c19 -66 32 -145 26 -154 -9 -16 -22 -10 -27 14 -3 17 -5 15 -6 -9 -1 -41
-21 -144 -31 -169 -5 -11 -14 -44 -20 -74 -6 -30 -17 -68 -24 -85 -22 -50 -35
-115 -24 -122 19 -12 -34 -54 -69 -54 -36 0 -109 25 -134 47 -8 7 -24 13 -34
13 -29 0 -103 31 -109 45 -2 7 8 31 23 53 15 23 40 68 56 102 16 33 35 60 42
60 19 0 16 -21 -12 -74 -13 -25 -20 -46 -15 -46 11 0 50 49 50 64 0 6 4 17 9
25 7 11 21 6 71 -27 34 -23 66 -39 71 -36 5 3 9 0 9 -5 0 -6 5 -11 10 -11 6 0
5 8 -2 20 -7 11 -18 20 -24 20 -7 0 -22 8 -34 18 l-23 18 37 22 c33 20 50 52
26 52 -13 0 -2 49 26 118 17 42 20 61 12 75 -7 15 -7 18 2 12 9 -5 10 -2 6 13
-5 13 -1 25 11 34 23 17 63 74 63 89 0 24 27 -11 38 -48z m-308 21 c6 -6 13
-45 15 -87 l5 -76 -44 -6 c-59 -9 -81 -4 -79 20 1 19 1 19 -12 2 -12 -17 -14
-17 -23 -2 -5 9 -13 15 -18 13 -5 -1 -10 26 -12 62 -4 82 8 93 95 88 35 -2 68
-9 73 -14z m-772 -5 c-2 -6 3 -14 10 -16 6 -3 12 0 12 6 0 7 30 11 83 11 75 0
91 -4 148 -32 87 -45 87 -58 -3 -87 -40 -12 -95 -31 -123 -42 -55 -23 -145
-79 -145 -92 0 -4 15 3 33 16 74 56 227 109 227 79 0 -7 -199 -111 -240 -125
-9 -3 -5 -6 10 -6 26 -1 282 119 312 146 10 9 26 13 40 10 13 -3 32 1 42 9 11
8 29 14 40 14 17 0 18 2 7 9 -12 8 -9 11 12 16 17 5 33 2 42 -5 14 -12 13 -16
-6 -36 -18 -19 -20 -26 -9 -39 7 -8 19 -15 27 -15 11 0 9 5 -7 18 -21 17 -21
18 -2 35 18 16 20 15 61 -33 35 -41 40 -54 35 -77 -9 -36 -169 -266 -212 -304
-22 -19 -44 -29 -65 -29 -51 0 -66 17 -70 80 l-3 55 -2 -62 c-1 -35 -4 -63 -7
-63 -10 0 -79 43 -129 79 -99 73 -154 159 -191 296 l-18 64 39 65 c34 60 58
84 52 55z m-95 -90 c-4 -48 2 -81 26 -158 36 -115 74 -176 144 -232 29 -23 51
-45 50 -49 -1 -3 4 -7 10 -7 7 0 31 -12 54 -26 24 -15 47 -27 53 -27 5 0 10
-12 10 -27 0 -25 1 -26 14 -8 13 18 14 17 30 -14 l17 -32 -38 7 c-76 14 -247
124 -307 197 -42 51 -106 182 -106 216 0 19 3 22 12 13 20 -20 30 -13 14 10
-9 12 -17 45 -18 73 l-1 50 -7 -55 c-5 -49 -7 -52 -14 -27 -8 27 -5 63 10 102
7 18 6 19 -10 6 -17 -14 -46 -63 -46 -77 0 -3 7 -1 15 6 13 11 15 7 15 -28 0
-23 4 -43 9 -46 4 -3 11 -23 15 -45 3 -22 8 -45 11 -53 4 -9 -14 -22 -52 -38
-32 -14 -79 -39 -105 -57 -34 -22 -48 -27 -48 -17 0 8 5 14 11 14 5 0 8 4 5 9
-3 5 3 34 13 64 14 44 15 57 5 61 -9 3 -11 -1 -7 -12 3 -9 2 -13 -2 -9 -5 4
-15 -3 -23 -15 -12 -21 -13 -16 -8 42 3 50 2 58 -5 35 -5 -16 -10 -52 -10 -80
-1 -53 -29 -175 -40 -175 -11 0 -69 70 -69 82 0 6 -3 9 -6 5 -8 -8 32 -73 55
-90 10 -6 21 -22 25 -34 6 -20 4 -23 -19 -23 -34 0 -72 39 -80 84 -13 65 13
139 31 91 4 -8 13 -15 21 -15 11 0 10 6 -5 28 l-20 27 59 90 c33 50 78 108
102 130 27 25 32 33 15 22 -16 -10 -28 -13 -28 -8 0 12 37 33 65 37 11 1 28 5
38 9 13 5 16 3 11 -8 -3 -8 0 -18 7 -23 7 -4 10 -3 6 3 -11 17 49 56 94 62 3
1 4 -26 2 -60z m965 -7 c-12 -35 -10 -40 22 -47 42 -9 44 -33 10 -103 -45 -93
-80 -83 -80 25 0 24 5 43 13 46 10 4 10 7 0 18 -16 16 -16 46 -2 87 10 29 11
30 28 14 13 -13 15 -23 9 -40z"/>
<path d="M2197 2060 c-4 -58 -12 -240 -17 -405 -10 -285 -15 -363 -39 -550 -6
-44 -12 -126 -14 -183 -4 -110 -9 -123 -53 -114 -15 3 -24 0 -24 -8 0 -10 -19
-12 -82 -7 -46 3 -99 9 -118 12 l-35 5 44 -21 c39 -19 42 -23 36 -47 -7 -31
-7 -39 1 -106 5 -36 3 -47 -6 -41 -8 5 -10 20 -6 44 5 26 4 32 -3 21 -6 -8
-11 -27 -11 -42 0 -35 50 -60 112 -58 24 1 45 1 48 0 44 -14 178 12 150 30 -9
6 -3 9 20 12 28 2 34 8 37 30 4 29 -26 58 -61 58 -28 0 -86 42 -86 62 0 10 13
24 28 32 26 14 28 18 30 93 4 112 10 183 27 308 17 127 38 647 33 845 l-3 135
-8 -105z m-137 -1335 c4 -17 12 -40 18 -50 11 -19 11 -18 12 7 l0 27 37 -21
c20 -12 48 -22 62 -23 18 0 26 -5 26 -19 0 -12 -15 -24 -50 -37 -74 -28 -116
-39 -109 -28 4 6 -13 7 -45 3 -27 -3 -61 -4 -75 0 -26 6 -26 7 -20 84 3 42 7
82 8 87 2 6 29 8 67 5 61 -5 63 -6 69 -35z"/>
<path d="M1281 1792 c-3 -78 22 -228 46 -276 l25 -48 -69 4 c-37 3 -77 8 -88
12 -11 4 -2 -4 20 -18 22 -14 47 -26 56 -26 9 0 37 -9 63 -21 l47 -20 -2 -58
c-1 -42 3 -65 16 -82 10 -13 15 -17 12 -8 -13 40 44 53 61 14 28 -62 71 -35
98 61 14 46 23 63 33 59 12 -5 12 -3 0 11 -12 15 -12 16 6 11 11 -3 32 -9 48
-13 15 -3 27 -10 27 -14 0 -7 60 -21 109 -24 32 -2 45 -23 76 -122 32 -105 34
-167 6 -222 -24 -47 -41 -62 -35 -30 4 21 4 21 -8 -2 -6 -14 -20 -44 -31 -67
-11 -24 -22 -41 -26 -38 -5 2 -23 -12 -42 -32 -19 -19 -52 -48 -73 -64 -21
-16 -34 -29 -28 -29 6 0 36 20 65 44 l55 44 -17 -41 c-10 -27 -51 -77 -115
-142 l-99 -100 -8 45 c-8 52 -62 197 -84 226 -12 16 -12 11 1 -29 9 -27 13
-52 8 -57 -5 -4 -34 -17 -66 -28 -43 -16 -59 -18 -66 -9 -18 23 -43 77 -35 77
5 0 0 5 -10 11 -9 6 -15 14 -12 19 12 19 -27 24 -185 26 -178 2 -264 19 -340
68 -46 30 -90 119 -101 205 -11 85 -11 188 -1 195 5 3 16 -8 26 -25 9 -16 24
-29 32 -29 19 0 19 -1 -26 77 -42 74 -100 138 -100 111 0 -9 7 -21 15 -28 18
-15 20 -57 3 -62 -20 -7 -22 -163 -5 -218 l15 -45 2 60 c4 111 17 128 19 25 2
-119 13 -175 38 -203 17 -18 22 -42 27 -127 3 -58 11 -121 17 -140 7 -19 13
-77 13 -129 l1 -94 90 -18 c103 -22 158 -21 163 1 2 12 -6 15 -40 12 l-43 -3
53 25 c30 14 60 26 68 26 17 0 19 44 2 58 -7 5 -22 11 -33 14 -13 2 -21 12
-23 29 -3 24 1 27 57 41 l61 15 0 -69 c0 -84 19 -134 57 -149 15 -6 68 -15
116 -20 70 -7 95 -6 122 6 19 7 35 17 35 20 0 3 -3 4 -7 2 -5 -2 -68 -1 -141
3 -99 5 -136 10 -142 21 -21 32 -23 124 -5 217 l17 94 37 -6 c98 -17 91 -11
91 -76 0 -49 3 -58 15 -54 12 5 15 -3 16 -37 0 -24 4 -53 9 -64 7 -16 9 -14 9
15 1 28 8 40 36 59 36 24 99 50 126 51 12 0 20 -16 28 -58 17 -75 35 -101 61
-84 14 8 33 9 71 2 93 -18 189 -7 189 22 0 4 11 8 24 8 13 0 26 6 29 14 5 12
-2 13 -31 9 -51 -7 -93 -23 -86 -34 6 -10 -39 -10 -107 -1 l-47 7 81 85 c44
47 75 75 68 63 -19 -36 7 -28 27 8 9 17 45 74 79 127 34 53 65 109 68 123 4
15 13 30 21 33 21 8 18 68 -9 166 -37 135 -60 179 -97 186 -16 4 -30 10 -30
15 0 5 -9 9 -20 9 -12 0 -34 7 -50 15 -16 9 -50 18 -75 22 l-46 6 7 71 c6 71
-9 239 -27 292 -9 27 -9 27 -4 -6 12 -74 18 -248 11 -303 -6 -47 -11 -57 -27
-57 -10 0 -19 -4 -19 -10 0 -5 7 -10 15 -10 9 0 15 -9 15 -22 0 -35 -32 -127
-47 -132 -21 -8 -46 40 -39 74 5 30 -6 41 -20 18 -5 -7 -11 -5 -21 7 -16 23
-17 12 -2 -17 9 -16 8 -19 -3 -16 -17 6 -18 64 0 60 21 -4 14 11 -33 68 -53
65 -84 155 -103 305 -5 39 -10 55 -11 37z m-245 -986 c1 0 4 -25 6 -53 5 -53
5 -53 -24 -53 -16 0 -36 -7 -44 -15 -9 -8 -22 -15 -29 -15 -13 0 -16 10 -28
90 -3 14 -5 -2 -7 -35 -3 -74 -3 -72 5 -118 5 -33 9 -37 27 -31 13 4 24 1 29
-7 10 -15 12 -46 3 -37 -3 4 -33 -7 -68 -22 -54 -25 -70 -28 -124 -23 -57 5
-62 8 -62 29 0 14 5 23 13 21 9 -1 11 30 9 137 l-3 139 38 -6 c21 -3 47 -2 58
3 15 6 194 3 201 -4z"/>
<path d="M786 1633 c-3 -21 -6 -51 -6 -67 0 -26 -2 -28 -27 -22 -16 4 -37 9
-48 12 -23 5 24 -18 72 -36 17 -7 34 -19 37 -27 5 -13 -1 -14 -40 -8 -62 9
-97 23 -89 35 11 17 -14 11 -50 -12 -19 -13 -35 -29 -35 -36 0 -9 10 -6 32 9
28 20 31 21 25 5 -6 -15 -5 -17 6 -7 10 8 25 7 58 -3 24 -8 53 -16 64 -18 14
-2 2 -16 -53 -57 -40 -29 -71 -56 -68 -58 5 -6 68 26 81 42 6 6 26 22 45 36
31 23 43 25 100 22 36 -3 76 -12 89 -20 22 -14 24 -14 17 2 -5 15 -2 17 25 11
17 -3 35 -6 39 -6 12 0 18 -46 9 -63 -5 -8 -26 -25 -46 -37 l-38 -22 25 28
c14 16 29 32 35 36 5 4 7 9 4 12 -2 3 -28 -18 -58 -46 l-53 -52 39 -23 c21
-12 44 -23 51 -23 21 0 13 -17 -10 -24 -13 -3 -59 -6 -104 -6 l-81 0 91 89
c50 50 88 93 84 96 -3 3 -46 -32 -94 -78 -49 -46 -99 -89 -111 -96 -32 -16
-70 4 -94 51 -24 48 -34 50 -15 3 13 -30 13 -35 1 -35 -8 0 -17 -5 -21 -11 -5
-8 1 -10 18 -6 14 4 33 1 45 -8 11 -8 54 -17 94 -20 40 -4 77 -9 82 -12 11 -6
263 15 339 29 70 13 118 41 118 68 0 26 -19 26 -105 -5 -38 -13 -85 -25 -103
-25 -31 0 -32 1 -17 16 20 20 13 61 -21 123 l-24 44 44 -5 c42 -5 77 4 65 16
-3 3 -62 9 -130 13 -87 4 -131 11 -149 22 -14 10 -21 11 -17 4 6 -10 -1 -13
-25 -13 -31 1 -32 1 -14 15 24 18 26 18 122 0 43 -8 82 -11 86 -7 4 4 -52 18
-125 31 -188 32 -171 22 -163 97 7 70 2 87 -8 27z"/>
</g>
</svg>
